<svg version="1.1" xmlns="http://www.w3.org/2000/svg" viewBox="0 0 694.2201578765789 592.4107322516425" width="694.2201578765789" height="592.4107322516425">
  <!-- svg-source:excalidraw -->
  
  <defs>
    <style class="style-fonts">
      @font-face {
        font-family: "Virgil";
        src: url("https://excalidraw.com/Virgil.woff2");
      }
      @font-face {
        font-family: "Cascadia";
        src: url("https://excalidraw.com/Cascadia.woff2");
      }
      @font-face {
        font-family: "Assistant";
        src: url("https://excalidraw.com/Assistant-Regular.woff2");
      }
    </style>
    
  </defs>
  <rect x="0" y="0" width="694.2201578765789" height="592.4107322516425" fill="#ffffff"></rect><g stroke-linecap="round" transform="translate(237.13510440292816 9.999999999999972) rotate(0 120.73577670630539 120.02556625509183)"><path d="M158.55 6.68 C171.33 8.9, 183.71 16.89, 194.37 25.28 C205.04 33.68, 215.09 45.42, 222.55 57.07 C230.01 68.73, 236.03 82, 239.13 95.23 C242.24 108.46, 242.98 123.04, 241.18 136.43 C239.38 149.82, 235 163.39, 228.34 175.58 C221.67 187.77, 211.51 200.17, 201.19 209.57 C190.88 218.98, 179.16 226.79, 166.44 232.01 C153.71 237.22, 138.56 240.37, 124.83 240.85 C111.1 241.33, 97.12 239.2, 84.04 234.9 C70.97 230.6, 57.46 223.47, 46.38 215.06 C35.3 206.65, 24.87 196.08, 17.55 184.44 C10.22 172.79, 5.01 158.55, 2.42 145.18 C-0.17 131.81, 0.15 117.77, 2.02 104.21 C3.88 90.65, 7.27 75.99, 13.59 63.82 C19.91 51.65, 29.55 40.33, 39.95 31.2 C50.36 22.07, 63.26 14.37, 76.02 9.03 C88.78 3.69, 101.41 -0.71, 116.51 -0.83 C131.61 -0.96, 157.33 5.7, 166.62 8.27 C175.92 10.84, 173.25 12.83, 172.26 14.58 M96.14 3.57 C108.76 -0.78, 125.26 -0.08, 139.04 1.64 C152.81 3.35, 166.73 7.33, 178.79 13.84 C190.84 20.35, 202.51 30.62, 211.36 40.69 C220.2 50.77, 226.88 61.54, 231.86 74.29 C236.84 87.05, 240.49 103.27, 241.23 117.24 C241.98 131.22, 240.5 145.39, 236.34 158.15 C232.18 170.9, 224.99 183.02, 216.29 193.76 C207.59 204.5, 195.72 215.39, 184.12 222.57 C172.53 229.76, 160.06 233.94, 146.72 236.87 C133.39 239.8, 117.88 241.82, 104.12 240.16 C90.35 238.5, 76.23 233.67, 64.14 226.9 C52.05 220.13, 40.96 209.72, 31.56 199.55 C22.16 189.38, 12.85 178.7, 7.73 165.88 C2.61 153.07, 1.33 136.53, 0.85 122.64 C0.37 108.75, 0.82 95.36, 4.86 82.53 C8.9 69.69, 16.31 56.49, 25.08 45.63 C33.86 34.76, 45.55 24.3, 57.5 17.33 C69.46 10.35, 90.45 6.05, 96.82 3.79 C103.19 1.54, 95.53 2.25, 95.72 3.81" stroke="#1e1e1e" stroke-width="2" fill="none"></path></g><g transform="translate(292.20777086466927 107.6546744403611) rotate(0 65.79002380371094 22.5)"><text x="65.79002380371094" y="31.536" font-family="Virgil, Segoe UI Emoji" font-size="36px" fill="#1e1e1e" text-anchor="middle" style="white-space: pre;" direction="ltr" dominant-baseline="alphabetic">A-Z 1-9</text></g><g stroke-linecap="round" transform="translate(485.3612315367818 332.5101302573428) rotate(0 99.42946316989855 99.42946316989858)"><path d="M133.58 5.06 C145.55 7.74, 157.41 17.23, 166.88 25.99 C176.36 34.76, 185.12 45.99, 190.44 57.65 C195.76 69.31, 198.4 83.24, 198.8 95.95 C199.2 108.65, 197.28 122.07, 192.83 133.86 C188.39 145.65, 180.61 157.29, 172.14 166.68 C163.67 176.08, 153.5 185.01, 142.01 190.22 C130.52 195.43, 115.81 197.5, 103.18 197.93 C90.55 198.35, 77.94 197.12, 66.2 192.76 C54.47 188.41, 42.15 180.36, 32.77 171.78 C23.4 163.2, 15.49 152.79, 9.97 141.29 C4.45 129.78, 0.47 115.4, -0.34 102.77 C-1.15 90.13, 0.56 77.28, 5.11 65.47 C9.65 53.65, 18.05 41.09, 26.93 31.89 C35.81 22.68, 46.88 15.54, 58.4 10.22 C69.91 4.89, 81.38 -0.41, 96.03 -0.07 C110.67 0.28, 136.1 8.85, 146.25 12.28 C156.4 15.72, 157.69 19.17, 156.91 20.55 M134.29 7.54 C146.27 10.19, 158.57 17.11, 168.03 25.25 C177.5 33.4, 186.01 44.58, 191.1 56.41 C196.18 68.24, 198.4 83.09, 198.53 96.23 C198.66 109.37, 195.98 123.3, 191.88 135.26 C187.77 147.22, 182.3 158.7, 173.89 167.97 C165.47 177.24, 153.15 185.7, 141.39 190.89 C129.64 196.09, 116.23 198.76, 103.36 199.12 C90.49 199.48, 76.01 197.68, 64.16 193.06 C52.31 188.43, 41.4 180.2, 32.24 171.37 C23.08 162.55, 14.82 151.68, 9.22 140.11 C3.62 128.53, -1.06 114.5, -1.34 101.9 C-1.62 89.31, 3.06 76.06, 7.55 64.55 C12.04 53.03, 17.28 42.27, 25.59 32.81 C33.9 23.36, 45.58 13.29, 57.38 7.81 C69.18 2.33, 83.67 -0.03, 96.39 -0.06 C109.1 -0.09, 127.32 6.05, 133.68 7.63 C140.05 9.21, 135.19 8.35, 134.58 9.43" stroke="#1e1e1e" stroke-width="2" fill="none"></path></g><g transform="translate(548.4334821447219 419.6323457700679) rotate(0 36.549964904785156 12.5)"><text x="36.549964904785156" y="17.52" font-family="Virgil, Segoe UI Emoji" font-size="20px" fill="#1e1e1e" text-anchor="middle" style="white-space: pre;" direction="ltr" dominant-baseline="alphabetic">A-Z 1-9</text></g><g stroke-linecap="round"><g transform="translate(437.52349974285744 236.6140297456955) rotate(0 39.42869569943382 52.29564000734831)"><path d="M-0.12 1 C13.22 18.31, 65.91 87.28, 79.11 104.51 M-1.64 0.48 C11.65 17.92, 64.94 88.48, 78.3 106" stroke="#1e1e1e" stroke-width="2" fill="none"></path></g><g transform="translate(437.52349974285744 236.6140297456955) rotate(0 39.42869569943382 52.29564000734831)"><path d="M57.29 92.45 C63.66 95.88, 66.5 98.87, 78.3 106 M57.29 92.45 C63.84 95.67, 69.61 99.32, 78.3 106" stroke="#1e1e1e" stroke-width="2" fill="none"></path></g><g transform="translate(437.52349974285744 236.6140297456955) rotate(0 39.42869569943382 52.29564000734831)"><path d="M70.91 82.11 C74.34 87.82, 74.16 93.09, 78.3 106 M70.91 82.11 C73.55 88.33, 75.47 94.9, 78.3 106" stroke="#1e1e1e" stroke-width="2" fill="none"></path></g></g><mask></mask><g stroke-linecap="round"><g transform="translate(359.6638624743007 265.34792513491095) rotate(0 -1.0749789346019725 60.87982794481212)"><path d="M0.43 -0.52 C0.04 19.76, -1.96 101.76, -2.31 122.26 M-0.8 1.82 C-1.37 21.68, -3.11 100.61, -3.35 120.4" stroke="#1e1e1e" stroke-width="2" fill="none"></path></g><g transform="translate(359.6638624743007 265.34792513491095) rotate(0 -1.0749789346019725 60.87982794481212)"><path d="M-11.47 96.76 C-9.76 103.62, -5.6 111.82, -3.35 120.4 M-11.47 96.76 C-9.17 106.13, -4.74 113.69, -3.35 120.4" stroke="#1e1e1e" stroke-width="2" fill="none"></path></g><g transform="translate(359.6638624743007 265.34792513491095) rotate(0 -1.0749789346019725 60.87982794481212)"><path d="M5.62 97.07 C2.15 103.9, 1.14 112.01, -3.35 120.4 M5.62 97.07 C1.71 106.44, -0.07 113.88, -3.35 120.4" stroke="#1e1e1e" stroke-width="2" fill="none"></path></g></g><mask></mask><g stroke-linecap="round" transform="translate(256.7301405254775 383.55180591184535) rotate(0 99.42946316989855 99.42946316989855)"><path d="M93.15 0.32 C105.01 -1.77, 119.48 2.07, 131.46 6.17 C143.44 10.27, 155.49 16.54, 165.01 24.92 C174.53 33.29, 183 44.97, 188.59 56.39 C194.18 67.81, 197.56 80.84, 198.55 93.45 C199.53 106.06, 198.63 120.22, 194.48 132.06 C190.33 143.89, 182.05 154.9, 173.62 164.47 C165.19 174.04, 155.23 183.63, 143.89 189.48 C132.55 195.34, 118.25 199.03, 105.57 199.57 C92.89 200.12, 79.76 196.82, 67.8 192.76 C55.84 188.7, 43.24 183.25, 33.81 175.19 C24.39 167.13, 16.96 156.07, 11.24 144.39 C5.51 132.71, 0.28 117.84, -0.56 105.12 C-1.4 92.39, 1.84 80.03, 6.18 68.03 C10.52 56.03, 17.36 42.77, 25.49 33.14 C33.62 23.51, 43.03 15.72, 54.96 10.27 C66.9 4.82, 89.19 1.74, 97.11 0.42 C105.02 -0.9, 102.3 0.74, 102.46 2.35 M145.64 12.2 C156.76 16.39, 167.32 25.34, 175.72 35.33 C184.12 45.31, 192.48 59.62, 196.04 72.11 C199.6 84.6, 198.76 97.89, 197.1 110.25 C195.43 122.61, 191.93 135.03, 186.05 146.25 C180.18 157.47, 171.62 169.25, 161.85 177.56 C152.08 185.88, 139.71 192.67, 127.46 196.14 C115.2 199.62, 100.88 199.88, 88.31 198.43 C75.73 196.97, 62.82 193.65, 52.02 187.43 C41.23 181.22, 31.42 170.89, 23.54 161.12 C15.67 151.36, 8.38 140.7, 4.76 128.84 C1.15 116.99, 0.43 102.64, 1.87 90 C3.32 77.36, 7.86 64.23, 13.44 52.99 C19.02 41.75, 25.83 30.78, 35.36 22.55 C44.89 14.32, 58.03 7.23, 70.62 3.62 C83.2 0.01, 98.18 -0.36, 110.88 0.88 C123.58 2.13, 140.93 9.21, 146.82 11.11 C152.72 13, 147.08 10.57, 146.22 12.25" stroke="#1e1e1e" stroke-width="2" fill="none"></path></g><g transform="translate(319.8023911334176 470.6740214245706) rotate(0 36.549964904785156 12.5)"><text x="36.549964904785156" y="17.52" font-family="Virgil, Segoe UI Emoji" font-size="20px" fill="#1e1e1e" text-anchor="middle" style="white-space: pre;" direction="ltr" dominant-baseline="alphabetic">A-Z 1-9</text></g><g stroke-linecap="round" transform="translate(10 359.44243342355935) rotate(0 99.42946316989855 99.42946316989858)"><path d="M136.44 7.7 C148.35 10.39, 159.61 18.14, 168.75 26.76 C177.88 35.38, 186.29 47.52, 191.25 59.42 C196.21 71.33, 198.53 85.5, 198.5 98.18 C198.46 110.86, 195.66 123.85, 191.04 135.49 C186.43 147.13, 179.47 158.96, 170.81 168.02 C162.15 177.07, 150.69 184.74, 139.08 189.82 C127.47 194.91, 113.71 198.14, 101.16 198.51 C88.62 198.89, 75.76 196.76, 63.82 192.08 C51.89 187.39, 38.88 179.17, 29.55 170.41 C20.21 161.65, 12.82 150.85, 7.82 139.51 C2.82 128.17, -0.27 115.2, -0.47 102.36 C-0.67 89.52, 2.04 74.47, 6.61 62.48 C11.18 50.5, 18.27 39.65, 26.98 30.46 C35.7 21.27, 47.3 12.55, 58.89 7.35 C70.49 2.16, 83.05 -1.04, 96.55 -0.7 C110.06 -0.35, 131.94 7, 139.9 9.42 C147.85 11.85, 144.93 12.58, 144.28 13.88 M72.66 2.79 C83.9 -1.87, 99.88 -2.08, 112.43 -0.32 C124.98 1.44, 137.12 7.13, 147.96 13.35 C158.8 19.56, 169.81 26.86, 177.48 36.96 C185.15 47.06, 190.74 61.47, 193.98 73.95 C197.23 86.42, 198.08 99.35, 196.97 111.81 C195.86 124.26, 193.42 137.9, 187.34 148.67 C181.25 159.45, 170.45 168.66, 160.47 176.44 C150.5 184.21, 139.79 191.93, 127.49 195.32 C115.19 198.72, 99.56 198.24, 86.67 196.82 C73.78 195.4, 61.08 192.63, 50.14 186.81 C39.2 180.98, 28.54 172.05, 21.04 161.88 C13.54 151.7, 8.62 138.41, 5.15 125.77 C1.68 113.14, -1.26 98.35, 0.23 86.05 C1.73 73.76, 8.05 62.68, 14.15 52 C20.24 41.32, 26.83 30.26, 36.78 21.98 C46.74 13.69, 67.93 5.02, 73.88 2.31 C79.82 -0.41, 72.1 3.8, 72.45 5.69" stroke="#1e1e1e" stroke-width="2" fill="none"></path></g><g transform="translate(73.07225060794008 446.5646489362846) rotate(0 36.549964904785156 12.500000000000028)"><text x="36.549964904785156" y="17.52" font-family="Virgil, Segoe UI Emoji" font-size="20px" fill="#1e1e1e" text-anchor="middle" style="white-space: pre;" direction="ltr" dominant-baseline="alphabetic">A-Z 1-9</text></g><g stroke-linecap="round"><g transform="translate(277.6292531977097 244.60365268433557) rotate(0 -49.16701384739193 62.94857227892825)"><path d="M-0.28 1.1 C-16.63 22.05, -81.49 105.82, -97.9 126.51 M1.78 0.64 C-14.71 21.16, -81.71 103.78, -98.61 124.71" stroke="#1e1e1e" stroke-width="2" fill="none"></path></g><g transform="translate(277.6292531977097 244.60365268433557) rotate(0 -49.16701384739193 62.94857227892825)"><path d="M-90.48 101.07 C-91.06 109.3, -94.47 115.47, -98.61 124.71 M-90.48 101.07 C-91.97 106.88, -93.91 113.43, -98.61 124.71" stroke="#1e1e1e" stroke-width="2" fill="none"></path></g><g transform="translate(277.6292531977097 244.60365268433557) rotate(0 -49.16701384739193 62.94857227892825)"><path d="M-77.19 111.83 C-82.07 116.6, -89.71 119.35, -98.61 124.71 M-77.19 111.83 C-81.94 114.95, -87.15 118.85, -98.61 124.71" stroke="#1e1e1e" stroke-width="2" fill="none"></path></g></g><mask></mask></svg>